<svg width="24" height="24" viewBox="0 0 24 24" fill="none" xmlns="http://www.w3.org/2000/svg">
<path d="M9.5752 2.39844C10.2377 2.39854 10.7752 2.93516 10.7754 3.59766V20.3984C10.7752 21.0609 10.2377 21.5976 9.5752 21.5977C8.91258 21.5977 8.37521 21.061 8.375 20.3984V3.59766C8.37521 2.93509 8.91258 2.39844 9.5752 2.39844ZM14.375 5.59766C15.0377 5.59766 15.5751 6.1352 15.5752 6.79785V17.1982C15.5751 17.8609 15.0377 18.3984 14.375 18.3984C13.7123 18.3984 13.1749 17.8609 13.1748 17.1982V6.79785C13.1749 6.1352 13.7123 5.59766 14.375 5.59766ZM4.8252 7.99805C5.48785 7.99815 6.02539 8.53557 6.02539 9.19824V14.7979C6.02539 15.4605 5.48785 15.9979 4.8252 15.998C4.16245 15.998 3.625 15.4606 3.625 14.7979V9.19824C3.625 8.5355 4.16245 7.99805 4.8252 7.99805ZM19.1748 7.99805C19.8375 7.99805 20.375 8.5355 20.375 9.19824V14.7979C20.375 15.4606 19.8375 15.998 19.1748 15.998C18.5122 15.9979 17.9746 15.4605 17.9746 14.7979V9.19824C17.9746 8.53557 18.5122 7.99815 19.1748 7.99805Z" fill="#B0B0B0"/>
</svg>
