<svg width="17" height="21" viewBox="0 0 17 21" fill="none" xmlns="http://www.w3.org/2000/svg">
<path d="M0.5 16.4808V8.20753C0.5 4.57416 0.5 2.75748 1.67157 1.62874C2.84315 0.5 4.72876 0.5 8.5 0.5C12.2712 0.5 14.1569 0.5 15.3284 1.62874C16.5 2.75748 16.5 4.57416 16.5 8.20753V16.4808C16.5 18.7867 16.5 19.9396 15.7272 20.3523C14.2305 21.1514 11.4232 18.4852 10.09 17.6824C9.3168 17.2168 8.93019 16.984 8.5 16.984C8.06981 16.984 7.68321 17.2168 6.91 17.6824C5.5768 18.4852 2.76947 21.1514 1.27285 20.3523C0.5 19.9396 0.5 18.7867 0.5 16.4808Z" stroke="#141B34" stroke-linecap="round" stroke-linejoin="round"/>
</svg>
