<svg width="20" height="20" viewBox="0 0 20 20" fill="none" xmlns="http://www.w3.org/2000/svg">
<path d="M2.5 8.21175C2.5 7.35842 3.19176 6.66666 4.04508 6.66666C4.63032 6.66666 5.16533 6.33601 5.42705 5.81256L6.11111 4.44444C6.11378 4.43909 6.11512 4.43642 6.11637 4.43394C6.45523 3.76089 7.14364 3.33543 7.89719 3.33334C7.89996 3.33333 7.90295 3.33333 7.90893 3.33333H12.0911C12.0971 3.33333 12.1 3.33333 12.1028 3.33334C12.8564 3.33543 13.5448 3.76089 13.8836 4.43394C13.8849 4.43642 13.8862 4.43909 13.8889 4.44444L14.5729 5.81256C14.8347 6.33601 15.3697 6.66666 15.9549 6.66666C16.8082 6.66666 17.5 7.35842 17.5 8.21175V12.3809C17.5 13.5779 17.5 14.1764 17.3316 14.6575C17.0301 15.5192 16.3526 16.1968 15.4908 16.4983C15.0097 16.6667 14.4112 16.6667 13.2143 16.6667H6.78571C5.58876 16.6667 4.99028 16.6667 4.50916 16.4983C3.64742 16.1968 2.96989 15.5192 2.66835 14.6575C2.5 14.1764 2.5 13.5779 2.5 12.3809V8.21175Z" stroke="#222222" stroke-width="0.7"/>
<circle cx="10" cy="10.8333" r="2.98333" stroke="#222222" stroke-width="0.7"/>
</svg>
