<svg width="19" height="21" viewBox="0 0 19 21" fill="none" xmlns="http://www.w3.org/2000/svg">
<path d="M15.5 5.5C16.2745 5.66058 16.8588 5.92859 17.3284 6.37589C18.5 7.49181 18.5 9.28787 18.5 12.88C18.5 16.4721 18.5 18.2681 17.3284 19.3841C16.1569 20.5 14.2712 20.5 10.5 20.5H8.5C4.72876 20.5 2.84315 20.5 1.67157 19.3841C0.5 18.2681 0.5 16.4721 0.5 12.88C0.5 9.28787 0.5 7.49181 1.67157 6.37589C2.14118 5.92859 2.7255 5.66058 3.5 5.5" stroke="#141B34" stroke-linecap="round"/>
<path d="M9.52529 0.500524L9.5 12.5M9.52529 0.500524C9.36266 0.493787 9.19906 0.55191 9.05333 0.674916C8.14686 1.44006 6.5 3.42886 6.5 3.42886M9.52529 0.500524C9.67112 0.506565 9.81616 0.564757 9.94681 0.675084C10.8531 1.44037 12.5 3.42886 12.5 3.42886" stroke="#141B34" stroke-linecap="round" stroke-linejoin="round"/>
</svg>
