<svg width="200" height="200" viewBox="0 0 200 200" fill="none" xmlns="http://www.w3.org/2000/svg">
<g clip-path="url(#clip0_608_19553)">
<path d="M25 150.5C38.531 150.5 49.5 161.469 49.5 175C49.5 188.531 38.531 199.5 25 199.5C11.469 199.5 0.5 188.531 0.5 175C0.5 161.469 11.469 150.5 25 150.5ZM100 150.5C113.531 150.5 124.5 161.469 124.5 175C124.5 188.531 113.531 199.5 100 199.5C86.469 199.5 75.5 188.531 75.5 175C75.5 161.469 86.469 150.5 100 150.5ZM175 150.5C188.531 150.5 199.5 161.469 199.5 175C199.5 188.531 188.531 199.5 175 199.5C161.469 199.5 150.5 188.531 150.5 175C150.5 161.469 161.469 150.5 175 150.5ZM25 75.5C38.531 75.5 49.5 86.469 49.5 100C49.5 113.531 38.531 124.5 25 124.5C11.469 124.5 0.5 113.531 0.5 100C0.5 86.469 11.469 75.5 25 75.5ZM100 75.5C113.531 75.5 124.5 86.469 124.5 100C124.5 113.531 113.531 124.5 100 124.5C86.469 124.5 75.5 113.531 75.5 100C75.5 86.469 86.469 75.5 100 75.5ZM175 75.5C188.531 75.5 199.5 86.469 199.5 100C199.5 113.531 188.531 124.5 175 124.5C161.469 124.5 150.5 113.531 150.5 100C150.5 86.469 161.469 75.5 175 75.5ZM25 0.5C38.531 0.5 49.5 11.469 49.5 25C49.5 38.531 38.531 49.5 25 49.5C11.469 49.5 0.5 38.531 0.5 25C0.5 11.469 11.469 0.5 25 0.5ZM100 0.5C113.531 0.5 124.5 11.469 124.5 25C124.5 38.531 113.531 49.5 100 49.5C86.469 49.5 75.5 38.531 75.5 25C75.5 11.469 86.469 0.5 100 0.5ZM175 0.5C188.531 0.5 199.5 11.469 199.5 25C199.5 38.531 188.531 49.5 175 49.5C161.469 49.5 150.5 38.531 150.5 25C150.5 11.469 161.469 0.5 175 0.5Z" stroke="white"/>
</g>
<defs>
<clipPath id="clip0_608_19553">
<rect width="200" height="200" fill="white"/>
</clipPath>
</defs>
</svg>
